<?xml version="1.0" encoding="UTF-8"?>
<svg width="39px" height="27px" viewBox="0 0 39 27" version="1.1" xmlns="http://www.w3.org/2000/svg" xmlns:xlink="http://www.w3.org/1999/xlink">
    <title>cloudsharing</title>
    <g id="2025-os26" stroke="none" stroke-width="1" fill="none" fill-rule="evenodd">
        <g id="Landing" transform="translate(-1082, -481)" fill="color(display-p3 0.000 0.439 0.961)">
            <g id="Feature-List" transform="translate(0, 453)">
                <g id="Group-3" transform="translate(230, 0)" fill-rule="nonzero">
                    <g id="Group-2" transform="translate(800, 0)">
                        <g id="cloudsharing" transform="translate(50, 24)">
                            <path d="M32.0615234,30.0839844 C36.6025391,30.0839844 40.1914062,26.7441406 40.1914062,22.5693359 C40.1914062,19.4492188 38.4189453,16.6953125 35.5185547,15.4794922 C35.5332031,8.85839844 30.7724609,4.08300781 24.6347656,4.08300781 C20.7236328,4.08300781 17.8232422,6.11914062 15.9775391,8.75585938 C12.2714844,7.75976562 8.36035156,10.5283203 8.22851562,14.6591797 C4.87402344,15.2597656 2.80859375,18.2626953 2.80859375,21.9101562 C2.80859375,26.3632812 6.70507812,30.0839844 11.8173828,30.0839844 L32.0615234,30.0839844 Z M32.0615234,27.2128906 L30.5673828,27.2128906 C29.46875,24.8837891 26.6855469,22.3789062 22.4375,22.3789062 C18.1894531,22.3789062 15.40625,24.8837891 14.2929688,27.2128906 L11.8173828,27.2128906 C8.31640625,27.2128906 5.70898438,24.7666016 5.70898438,21.9101562 C5.70898438,18.9951172 7.51074219,16.8125 10.5136719,16.8125 C10.71875,16.8125 10.8212891,16.6953125 10.8066406,16.4902344 C10.71875,12.1103516 13.8535156,10.6455078 16.9882812,11.6416016 C17.1787109,11.7001953 17.2958984,11.65625 17.3837891,11.4951172 C18.8339844,8.94628906 20.9726562,6.95410156 24.6201172,6.95410156 C29.2490234,6.95410156 32.5302734,10.6308594 32.75,14.8935547 C32.7939453,15.6699219 32.75,16.5195312 32.6767578,17.2226562 C32.6621094,17.4277344 32.7353516,17.5449219 32.9257812,17.5742188 C35.5917969,18.0869141 37.2910156,19.9765625 37.2910156,22.5693359 C37.2910156,25.1474609 35.0058594,27.2128906 32.0615234,27.2128906 Z M22.4375,20.6358231 C24.6054688,20.6503906 26.3486328,18.6728516 26.3486328,16.34375 C26.3486328,14.0585938 24.6054688,12.1689453 22.4375,12.1689453 C20.2695312,12.1689453 18.5263672,14.0585938 18.5263672,16.34375 C18.5263672,18.6728516 20.2548828,20.6210938 22.4375,20.6358231 Z" id="Shape"></path>
                        </g>
                    </g>
                </g>
            </g>
        </g>
    </g>
</svg>