<?xml version="1.0" encoding="UTF-8"?>
<svg width="35px" height="31px" viewBox="0 0 35 31" version="1.1" xmlns="http://www.w3.org/2000/svg" xmlns:xlink="http://www.w3.org/1999/xlink">
    <title>currency</title>
    <g id="2025-os26" stroke="none" stroke-width="1" fill="none" fill-rule="evenodd">
        <g id="Landing" transform="translate(-444, -480)" fill="color(display-p3 0.118 0.765 0.216)">
            <g id="Feature-List" transform="translate(0, 453)">
                <g id="Group-3" transform="translate(230, 0)" fill-rule="nonzero">
                    <g id="Group-2" transform="translate(160, 0)">
                        <g id="currency" transform="translate(52, 24)">
                            <path d="M4.05322266,15.4501953 C2.91064453,15.4501953 2.61767578,16.2998047 3.24755859,17.1640625 L6.79248047,22.0859375 C7.29052734,22.7744141 8.05224609,22.7597656 8.53564453,22.0859375 L12.0805664,17.1494141 C12.6811523,16.3144531 12.402832,15.4501953 11.2749023,15.4501953 L9.15087891,15.4501953 C10.4692383,10.1621094 15.2299805,6.28027344 20.9428711,6.28027344 C27.6811523,6.28027344 33.1010742,11.6855469 33.1010742,18.4238281 C33.1010742,25.1621094 27.6811523,30.5966797 20.9428711,30.5820312 C17.0024414,30.5673828 13.5600586,28.7216797 11.362793,25.8212891 C10.7768555,25.1328125 9.91259766,24.9130859 9.20947266,25.4257812 C8.53564453,25.9091797 8.40380859,26.8466797 9.04833984,27.6230469 C11.7583008,31.1679688 16.1967773,33.5556641 20.9428711,33.5556641 C29.2338867,33.5556641 36.074707,26.7148438 36.074707,18.4238281 C36.074707,10.1474609 29.2338867,3.29199219 20.9428711,3.29199219 C13.6772461,3.29199219 7.51025391,8.55078125 6.11865234,15.4501953 L4.05322266,15.4501953 Z M20.0786133,26.8173828 C20.0786133,27.3007812 20.4741211,27.6962891 20.9575195,27.6962891 C21.4262695,27.6962891 21.8217773,27.3007812 21.8217773,26.8173828 L21.8217773,25.4257812 C24.5170898,25.1328125 26.362793,23.5361328 26.362793,21.3388672 C26.362793,19.3466797 25.2348633,18.2626953 22.4956055,17.6328125 L21.8217773,17.4863281 L21.8217773,13.5898438 C22.6713867,13.8242188 23.2573242,14.3955078 23.6381836,15.3183594 C23.9165039,15.8603516 24.3266602,16.109375 24.7807617,16.109375 C25.6157227,16.109375 26.0551758,15.3623047 25.7915039,14.4833984 C25.425293,13.1650391 24.0483398,11.8027344 21.8217773,11.4951172 L21.8217773,10.0449219 C21.8217773,9.56152344 21.4262695,9.16601562 20.9575195,9.16601562 C20.4741211,9.16601562 20.0786133,9.56152344 20.0786133,10.0449219 L20.0786133,11.4511719 C17.4711914,11.7001953 15.6987305,13.2822266 15.6987305,15.4648438 C15.6987305,17.4277344 16.9731445,18.6289062 19.5952148,19.2441406 L20.0786133,19.3466797 L20.0786133,23.3603516 C18.9799805,23.1699219 18.2768555,22.5693359 17.8666992,21.5732422 C17.6176758,21.0751953 17.1782227,20.8115234 16.7387695,20.8115234 C15.918457,20.8115234 15.4790039,21.4853516 15.6694336,22.3789062 C15.9916992,23.8876953 17.6469727,25.1767578 20.0786133,25.4257812 L20.0786133,26.8173828 Z M18.1743164,15.3476562 C18.1743164,14.4101562 18.9067383,13.7216797 20.0786133,13.53125 L20.0786133,17.0761719 C18.7456055,16.7099609 18.1743164,16.1826172 18.1743164,15.3476562 Z M23.8432617,21.5439453 C23.8432617,22.4960938 23.081543,23.1552734 21.8217773,23.3603516 L21.8217773,19.7568359 C23.2719727,20.1083984 23.8432617,20.6064453 23.8432617,21.5439453 Z" id="Shape"></path>
                        </g>
                    </g>
                </g>
            </g>
        </g>
    </g>
</svg>