<?xml version="1.0" encoding="UTF-8"?>
<svg width="40px" height="30px" viewBox="0 0 40 30" version="1.1" xmlns="http://www.w3.org/2000/svg" xmlns:xlink="http://www.w3.org/1999/xlink">
    <title>interface</title>
    <g id="2025-os26" stroke="none" stroke-width="1" fill="none" fill-rule="evenodd">
        <g id="Landing" transform="translate(-281, -480)" fill="color(display-p3 0.961 0.545 0.000)">
            <g id="Feature-List" transform="translate(0, 453)">
                <g id="Group-3" transform="translate(230, 0)" fill-rule="nonzero">
                    <g id="interface" transform="translate(47, 24)">
                        <path d="M4.10009766,24.78125 C4.10009766,25.1621094 4.27587891,25.6015625 4.58349609,25.8945312 L10.9995117,32.4570312 C11.3071289,32.7792969 11.7319336,32.9404297 12.1567383,32.9404297 C12.581543,32.9404297 13.0063477,32.7792969 13.3139648,32.4570312 L19.7299805,25.8945312 C20.0375977,25.6015625 20.2133789,25.1621094 20.2133789,24.78125 C20.2133789,23.8583984 19.5834961,23.2431641 18.7045898,23.2431641 C18.2358398,23.2431641 17.8842773,23.4189453 17.6206055,23.6972656 L15.7163086,25.6894531 L13.5776367,28.2089844 L13.7094727,24.8984375 L13.7094727,11.9345703 L13.5776367,8.63867188 L15.7163086,11.1582031 L17.6206055,13.1503906 C17.8842773,13.4287109 18.2358398,13.6044922 18.7045898,13.6044922 C19.5834961,13.6044922 20.2133789,12.9892578 20.2133789,12.0664062 C20.2133789,11.6855469 20.0375977,11.2460938 19.7299805,10.953125 L13.3139648,4.390625 C13.0063477,4.06835938 12.581543,3.89257812 12.1567383,3.89257812 C11.7319336,3.89257812 11.3071289,4.06835938 10.9995117,4.390625 L4.58349609,10.953125 C4.27587891,11.2460938 4.10009766,11.6855469 4.10009766,12.0664062 C4.10009766,12.9892578 4.72998047,13.6044922 5.60888672,13.6044922 C6.07763672,13.6044922 6.42919922,13.4140625 6.69287109,13.1503906 L8.59716797,11.1582031 L10.7358398,8.63867188 L10.6040039,11.9345703 L10.6040039,24.8984375 L10.7358398,28.2089844 L8.59716797,25.6894531 L6.69287109,23.6972656 C6.42919922,23.4335938 6.07763672,23.2431641 5.60888672,23.2431641 C4.72998047,23.2431641 4.10009766,23.8583984 4.10009766,24.78125 Z M23.0112305,14.5273438 C23.0112305,15.0253906 23.3774414,15.4208984 23.9194336,15.4794922 C30.628418,16.2412109 31.5805664,17.1640625 32.503418,24.1074219 C32.5913086,24.6054688 32.972168,24.9570312 33.4555664,24.9570312 C33.9243164,24.9570312 34.3198242,24.6054688 34.4077148,24.1074219 C35.3598633,17.1640625 36.2827148,16.2705078 42.9916992,15.4794922 C43.5336914,15.40625 43.8999023,15.0253906 43.8999023,14.5273438 C43.8999023,14.0146484 43.519043,13.6191406 42.9916992,13.5605469 C36.2973633,12.7988281 35.3305664,11.8613281 34.4077148,4.93261719 C34.3198242,4.43457031 33.9389648,4.08300781 33.4555664,4.08300781 C32.972168,4.08300781 32.5913086,4.43457031 32.503418,4.93261719 C31.5073242,11.8173828 30.628418,12.6523438 23.9047852,13.5605469 C23.3774414,13.6337891 23.0112305,14.0292969 23.0112305,14.5273438 Z M21.5170898,27.3447266 C21.5170898,27.6816406 21.7661133,27.9599609 22.1176758,28.0332031 C25.7944336,28.7070312 25.8237305,28.6630859 26.2485352,32.1054688 C26.3071289,32.4863281 26.5854492,32.75 26.9516602,32.75 C27.3178711,32.75 27.5961914,32.5009766 27.6547852,32.1201172 C28.1088867,28.53125 28.2407227,28.53125 31.7563477,28.0332031 C32.1225586,27.9746094 32.3862305,27.6816406 32.3862305,27.3447266 C32.3862305,27.0078125 32.137207,26.7148438 31.7709961,26.6416016 C28.1967773,25.9677734 28.1235352,26.0556641 27.6547852,22.5400391 C27.5961914,22.1738281 27.3032227,21.9248047 26.9516602,21.9248047 C26.5854492,21.9248047 26.3071289,22.1884766 26.2485352,22.5693359 C25.8237305,26.0263672 25.7651367,26.0703125 22.190918,26.6416016 C21.7807617,26.7148438 21.5170898,26.9638672 21.5170898,27.3447266 Z"></path>
                    </g>
                </g>
            </g>
        </g>
    </g>
</svg>