<?xml version="1.0" encoding="UTF-8"?>
<svg width="32px" height="31px" viewBox="0 0 32 31" version="1.1" xmlns="http://www.w3.org/2000/svg" xmlns:xlink="http://www.w3.org/1999/xlink">
    <title>privacy</title>
    <g id="2025-os26" stroke="none" stroke-width="1" fill="none" fill-rule="evenodd">
        <g id="Landing" transform="translate(-925, -480)" fill="color(display-p3 0.255 0.686 0.863)">
            <g id="Feature-List" transform="translate(0, 453)">
                <g id="Group-3" transform="translate(230, 0)" fill-rule="nonzero">
                    <g id="Group-2" transform="translate(640, 0)">
                        <g id="privacy" transform="translate(53, 24)">
                            <path d="M18,33.5556641 C26.2763672,33.5556641 33.1318359,26.7148438 33.1318359,18.4238281 C33.1318359,10.1474609 26.2763672,3.29199219 17.9853516,3.29199219 C9.70898438,3.29199219 2.86816406,10.1474609 2.86816406,18.4238281 C2.86816406,26.7148438 9.72363281,33.5556641 18,33.5556641 Z M18,30.5820312 C11.2617188,30.5820312 5.85644531,25.1621094 5.85644531,18.4238281 C5.85644531,11.6855469 11.2470703,6.28027344 17.9853516,6.28027344 C24.7236328,6.28027344 30.1582031,11.6855469 30.1582031,18.4238281 C30.1582031,25.1621094 24.7382812,30.5820312 18,30.5820312 Z M12.2431641,21.0019531 C12.2431641,24.6347656 14.6455078,26.8613281 18.0146484,26.8613281 C20.4462891,26.8613281 22.1308594,25.9091797 23.2880859,23.7119141 C24.0205078,22.4521484 24.5625,20.796875 25.03125,19.2441406 C25.265625,18.4824219 25.5878906,17.5595703 25.6171875,17.1494141 C25.6318359,16.6513672 25.2949219,16.2998047 24.796875,16.2851562 C24.2548828,16.2558594 23.8886719,16.578125 23.5371094,17.3251953 L22.3945312,19.7714844 C22.2919922,20.0205078 22.1748047,20.1083984 22.0576172,20.1083984 C21.9111328,20.1083984 21.8232422,19.9912109 21.8232422,19.7568359 L21.8232422,11.1289062 C21.8232422,10.6162109 21.3837891,10.1914062 20.8710938,10.1914062 C20.34375,10.1914062 19.9335938,10.6162109 19.9335938,11.1289062 L19.9335938,17.3398438 C19.7138672,17.28125 19.5087891,17.2080078 19.2597656,17.1640625 L19.2597656,9.95703125 C19.2597656,9.44433594 18.8496094,9.01953125 18.3222656,9.01953125 C17.7949219,9.01953125 17.3847656,9.44433594 17.3847656,9.95703125 L17.3847656,17.0615234 C17.1503906,17.1054688 16.9160156,17.1201172 16.6962891,17.1640625 L16.6962891,10.6601562 C16.6962891,10.1328125 16.2714844,9.70800781 15.7441406,9.70800781 C15.2314453,9.70800781 14.7919922,10.1328125 14.7919922,10.6601562 L14.7919922,17.7353516 C14.5429688,17.8378906 14.3525391,17.9697266 14.1474609,18.0869141 L14.1474609,13.2236328 C14.1474609,12.6816406 13.7226562,12.2568359 13.1953125,12.2568359 C12.6679688,12.2568359 12.2431641,12.6816406 12.2431641,13.2236328 L12.2431641,21.0019531 Z" id="Shape"></path>
                        </g>
                    </g>
                </g>
            </g>
        </g>
    </g>
</svg>