<?xml version="1.0" encoding="UTF-8"?>
<svg width="32px" height="31px" viewBox="0 0 32 31" version="1.1" xmlns="http://www.w3.org/2000/svg" xmlns:xlink="http://www.w3.org/1999/xlink">
    <title>recurring</title>
    <g id="2025-os26" stroke="none" stroke-width="1" fill="none" fill-rule="evenodd">
        <g id="Landing" transform="translate(-765, -480)" fill="color(display-p3 0.961 0.137 0.294)">
            <g id="Feature-List" transform="translate(0, 453)">
                <g id="Group-3" transform="translate(230, 0)" fill-rule="nonzero">
                    <g id="Group-2" transform="translate(480, 0)">
                        <g id="recurring" transform="translate(53, 24)">
                            <path d="M18,33.5556641 C26.2763672,33.5556641 33.1318359,26.7148438 33.1318359,18.4238281 C33.1318359,10.1474609 26.2763672,3.29199219 17.9853516,3.29199219 C9.70898438,3.29199219 2.86816406,10.1474609 2.86816406,18.4238281 C2.86816406,26.7148438 9.72363281,33.5556641 18,33.5556641 Z M18,30.5820312 C11.2617188,30.5820312 5.85644531,25.1621094 5.85644531,18.4238281 C5.85644531,11.6855469 11.2470703,6.28027344 17.9853516,6.28027344 C24.7236328,6.28027344 30.1582031,11.6855469 30.1582031,18.4238281 C30.1582031,25.1621094 24.7382812,30.5820312 18,30.5820312 Z M8.859375,17.1054688 L8.859375,17.9990234 C8.859375,18.5556641 9.328125,19.0244141 9.88476562,19.0244141 C10.4707031,19.0244141 10.9248047,18.5556641 10.9248047,17.9990234 L10.9248047,17.2080078 C10.9248047,15.9042969 11.8330078,15.0400391 13.2099609,15.0400391 L18.8056641,15.0400391 L18.8056641,16.7685547 C18.8056641,17.2958984 19.1425781,17.6181641 19.640625,17.6181641 C19.8603516,17.6181641 20.0800781,17.5302734 20.2705078,17.3984375 L23.5517578,14.6884766 C23.9765625,14.3222656 23.9765625,13.765625 23.5517578,13.3994141 L20.2705078,10.6748047 C20.0800781,10.5283203 19.8603516,10.4404297 19.640625,10.4404297 C19.1425781,10.4404297 18.8056641,10.7773438 18.8056641,11.2900391 L18.8056641,13.0039062 L13.3564453,13.0039062 C10.6464844,13.0039062 8.859375,14.6298828 8.859375,17.1054688 Z M27.0673828,19.8007812 L27.0673828,18.8925781 C27.0673828,18.3212891 26.6132812,17.8818359 26.0419922,17.8818359 C25.4414062,17.8818359 25.0019531,18.3212891 25.0019531,18.8925781 L25.0019531,19.6982422 C25.0019531,20.9873047 24.09375,21.8515625 22.7167969,21.8515625 L17.1210938,21.8515625 L17.1210938,20.1376953 C17.1210938,19.625 16.7988281,19.2880859 16.2861328,19.2880859 C16.0810547,19.2880859 15.8466797,19.3759766 15.65625,19.5224609 L12.3896484,22.2324219 C11.9501953,22.5839844 11.9501953,23.1552734 12.3896484,23.5068359 L15.65625,26.2314453 C15.8466797,26.3779297 16.0810547,26.4658203 16.2861328,26.4658203 C16.7988281,26.4658203 17.1210938,26.1435547 17.1210938,25.6162109 L17.1210938,23.9023438 L22.5703125,23.9023438 C25.2802734,23.9023438 27.0673828,22.2763672 27.0673828,19.8007812 Z" id="Shape"></path>
                        </g>
                    </g>
                </g>
            </g>
        </g>
    </g>
</svg>