<?xml version="1.0" encoding="UTF-8"?>
<svg width="37px" height="31px" viewBox="0 0 37 31" version="1.1" xmlns="http://www.w3.org/2000/svg" xmlns:xlink="http://www.w3.org/1999/xlink">
    <title>windows</title>
    <g id="2025-os26" stroke="none" stroke-width="1" fill="none" fill-rule="evenodd">
        <g id="Landing" transform="translate(-603, -480)" fill="color(display-p3 0.329 0.322 0.800)">
            <g id="Feature-List" transform="translate(0, 453)">
                <g id="Group-3" transform="translate(230, 0)" fill-rule="nonzero">
                    <g id="Group-2" transform="translate(320, 0)">
                        <g id="windows" transform="translate(49, 24)">
                            <path d="M8.80371094,26.65625 L11.3964844,26.65625 L11.3964844,28.8681641 C11.3964844,32.0029297 13.0371094,33.6142578 16.2011719,33.6142578 L36.1962891,33.6142578 C39.3603516,33.6142578 41.0009766,31.9882812 41.0009766,28.8681641 L41.0009766,14.9521484 C41.0009766,11.8173828 39.3603516,10.1914062 36.1962891,10.1914062 L33.4716797,10.1914062 L33.4716797,7.99414062 C33.4716797,4.859375 31.8164062,3.23339844 28.6669922,3.23339844 L8.80371094,3.23339844 C5.63964844,3.23339844 3.99902344,4.859375 3.99902344,7.99414062 L3.99902344,21.9101562 C3.99902344,25.0302734 5.63964844,26.65625 8.80371094,26.65625 Z M8.97949219,23.7851562 C7.6171875,23.7851562 6.87011719,23.0820312 6.87011719,21.6611328 L6.87011719,8.22851562 C6.87011719,6.80761719 7.6171875,6.10449219 8.97949219,6.10449219 L28.4912109,6.10449219 C29.8388672,6.10449219 30.6005859,6.80761719 30.6005859,8.22851562 L30.6005859,10.1914062 L16.2011719,10.1914062 C13.0371094,10.1914062 11.3964844,11.8173828 11.3964844,14.9521484 L11.3964844,23.7851562 L8.97949219,23.7851562 Z M16.4648438,15.3476562 C15.7177734,15.3476562 15.1025391,14.7177734 15.1025391,13.9853516 C15.1025391,13.2675781 15.7177734,12.6230469 16.4648438,12.6230469 C17.2119141,12.6230469 17.8271484,13.2675781 17.8271484,13.9853516 C17.8271484,14.7177734 17.2119141,15.3476562 16.4648438,15.3476562 Z M20.7861328,15.3476562 C20.0244141,15.3476562 19.4238281,14.7177734 19.4238281,13.9853516 C19.4238281,13.2675781 20.0244141,12.6230469 20.7861328,12.6230469 C21.5332031,12.6230469 22.1484375,13.2675781 22.1484375,13.9853516 C22.1484375,14.7177734 21.5332031,15.3476562 20.7861328,15.3476562 Z M25.1074219,15.3476562 C24.3457031,15.3476562 23.7304688,14.7177734 23.7304688,13.9853516 C23.7304688,13.2675781 24.3457031,12.6230469 25.1074219,12.6230469 C25.8544922,12.6230469 26.4550781,13.2675781 26.4550781,13.9853516 C26.4550781,14.7177734 25.8544922,15.3476562 25.1074219,15.3476562 Z M14.2675781,17.7939453 L38.1298828,17.7939453 L38.1298828,28.6191406 C38.1298828,30.0400391 37.3681641,30.7578125 36.0205078,30.7578125 L16.3769531,30.7578125 C15.0146484,30.7578125 14.2675781,30.0400391 14.2675781,28.6191406 L14.2675781,17.7939453 Z" id="Shape"></path>
                        </g>
                    </g>
                </g>
            </g>
        </g>
    </g>
</svg>